<svg xmlns="http://www.w3.org/2000/svg" viewBox="76.39 76.39 415.19 415.22">
  <g>
    <path d="M401.39062,243.29879a29.575,29.575,0,0,1-10.28256,20.85472L310.10227,334.189a30.76736,30.76736,0,0,1-20.19309,7.47079,8.04832,8.04832,0,0,1-1.07035-.0456l-3.07073-.275a30.30966,30.30966,0,0,1-16.00573-7.517l-46.90052-42.168c-11.53891-10.3128-14.2842-26.72169-6.60693-39.00535a30.75909,30.75909,0,0,1,46.48165-6.41668l15.68,14.02539a18.44416,18.44416,0,0,0,24.42731.22912l47.3657-40.93033c9.35222-8.06694,22.14748-10.3128,32.61633-5.77521C394.87684,219.05207,402.13523,230.64838,401.39062,243.29879Z" style="fill: #25cf60"/>
    <path d="M231.91749,484.33343C119.78112,454.3371,53.32636,340.06663,83.77659,229.60177S230.22716,53.66992,342.36353,83.66626a30.80791,30.80791,0,0,1,22.02161,37.8625,31.3781,31.3781,0,0,1-38.43751,21.68976c-78.79621-21.07788-160.31354,24.92868-181.71192,102.556-21.3976,77.62449,25.30225,157.926,104.09845,179.00383,78.80194,21.07942,160.31849-24.92432,181.7161-102.54881a31.3806,31.3806,0,0,1,38.43828-21.69259,30.81037,30.81037,0,0,1,22.02084,37.86533C460.05915,448.86712,344.05385,514.32976,231.91749,484.33343Z" style="fill: #25cf60"/>
  </g>
</svg>